<?xml version="1.0" standalone="no"?>
<!DOCTYPE svg PUBLIC "-//W3C//DTD SVG 20010904//EN"
 "http://www.w3.org/TR/2001/REC-SVG-20010904/DTD/svg10.dtd">
<svg version="1.0" xmlns="http://www.w3.org/2000/svg"
 width="300.000000pt" height="300.000000pt" viewBox="0 0 300.000000 300.000000"
 preserveAspectRatio="xMidYMid meet">
<metadata>
Created by potrace 1.10, written by Peter Selinger 2001-2011
</metadata>
<g transform="translate(0.000000,300.000000) scale(0.100000,-0.100000)"
fill="#000000" stroke="none">
<path d="M1444 2781 c-96 -71 -281 -278 -384 -431 -133 -199 -145 -238 -82
-290 20 -17 46 -33 57 -36 19 -5 20 -14 21 -217 0 -190 3 -226 27 -342 38
-185 37 -214 -19 -324 -77 -155 -177 -233 -299 -235 -105 -1 -170 56 -170 147
0 42 4 52 33 78 40 36 52 36 92 3 30 -25 31 -26 50 -9 53 48 -14 135 -104 135
-180 0 -256 -254 -115 -387 66 -61 113 -78 219 -78 77 1 105 5 150 25 84 36
185 107 245 172 51 55 55 63 55 108 0 27 -4 52 -10 55 -6 4 -10 -6 -10 -22 -1
-65 -88 -164 -208 -236 -198 -120 -396 -83 -468 88 -59 141 79 296 206 230 17
-9 30 -22 30 -30 0 -19 -4 -19 -41 1 -31 16 -89 11 -89 -7 0 -5 -6 -9 -14 -9
-18 0 -56 -78 -56 -115 0 -40 35 -107 67 -132 16 -11 31 -19 34 -19 3 1 14 -5
23 -13 11 -10 40 -14 83 -13 52 0 79 7 127 31 81 40 114 73 180 181 85 137 91
187 49 375 -23 105 -27 146 -30 334 -3 172 -6 218 -18 231 -8 9 -15 22 -15 28
0 7 -8 12 -18 12 -24 0 -62 36 -62 58 0 38 143 265 238 378 65 77 186 202 230
237 62 49 74 43 239 -125 41 -42 84 -87 93 -100 76 -97 120 -159 120 -167 0
-5 4 -11 8 -13 17 -6 94 -150 99 -184 5 -27 1 -39 -15 -54 -24 -23 -48 -26
-55 -7 -3 6 -6 -7 -6 -30 -1 -24 -5 -43 -10 -43 -5 0 -11 -86 -14 -197 -2
-109 -7 -211 -10 -228 -4 -16 -10 -46 -14 -65 -3 -19 -7 -39 -9 -45 -28 -118
-44 -217 -39 -250 4 -22 27 -83 52 -135 34 -70 60 -109 102 -150 80 -78 136
-103 242 -108 78 -4 89 -2 125 21 104 66 135 163 77 240 -34 44 -71 54 -114
33 -39 -19 -39 -19 -39 -3 0 33 45 52 112 49 41 -3 93 -54 108 -107 34 -121
-41 -232 -185 -277 -57 -18 -108 -15 -216 11 -67 16 -269 165 -269 198 0 6 -5
13 -10 15 -13 4 -39 75 -40 108 -1 45 -20 0 -20 -48 0 -52 32 -102 111 -178
177 -166 411 -203 563 -87 122 93 142 256 44 350 -72 68 -197 59 -229 -18 -22
-55 12 -92 54 -58 14 10 35 19 47 19 26 0 67 -40 76 -74 9 -37 -32 -115 -76
-144 -31 -21 -45 -23 -115 -20 -142 6 -240 78 -318 236 -38 78 -42 92 -42 161
1 47 12 122 29 196 25 106 29 145 33 338 3 119 9 217 13 217 4 0 28 18 54 41
30 27 46 49 46 65 0 88 -189 365 -379 554 -145 145 -159 151 -227 101z"/>
<path d="M1263 2458 c-57 -60 -141 -174 -132 -182 2 -2 35 0 73 4 46 5 74 13
81 24 7 9 18 51 25 93 7 43 16 88 21 100 14 37 -4 27 -68 -39z m43 -5 c-2 -10
-7 -40 -11 -68 -7 -66 -38 -95 -101 -95 -24 0 -44 3 -44 6 0 21 134 173 153
174 5 0 6 -8 3 -17z"/>
<path d="M1686 2469 c9 -83 23 -171 28 -176 4 -4 140 -33 154 -33 23 0 -50
111 -130 200 l-57 63 5 -54z m84 -71 c23 -28 48 -64 56 -80 l15 -28 -44 0
c-62 0 -78 16 -88 85 -12 93 2 99 61 23z"/>
<path d="M1450 2091 c0 -6 -8 -11 -17 -11 -42 0 -121 -49 -166 -102 -58 -67
-73 -111 -76 -209 -5 -160 82 -279 228 -313 245 -57 439 140 386 393 -19 92
-95 184 -185 223 -51 22 -170 35 -170 19z m181 -73 c127 -75 182 -212 141
-354 -15 -51 -71 -117 -129 -151 -61 -36 -176 -44 -254 -18 -74 25 -139 92
-163 169 -23 72 -18 164 12 221 27 53 96 119 152 145 65 30 179 24 241 -12z"/>
<path d="M1411 1932 c-19 -9 -48 -34 -65 -55 -42 -52 -49 -146 -16 -205 92
-163 331 -115 356 71 11 75 -30 153 -96 187 -49 25 -133 26 -179 2z m193 -33
c14 -11 26 -27 26 -34 0 -25 -30 -45 -64 -42 -28 2 -32 6 -34 34 -2 29 18 63
37 63 5 0 20 -9 35 -21z m-116 -24 c2 -27 31 -79 40 -71 2 3 11 -2 20 -10 10
-11 25 -14 46 -10 69 13 64 -80 -7 -138 -47 -37 -94 -37 -151 0 -80 53 -101
93 -82 155 15 48 45 84 81 96 39 13 50 8 53 -22z m-70 -254 c12 -6 22 -16 22
-22 0 -6 -9 -5 -22 2 -31 15 -68 50 -68 62 0 6 10 1 23 -10 12 -11 32 -26 45
-32z"/>
<path d="M1589 1055 c-14 -22 -29 -49 -33 -59 -7 -21 -21 -154 -31 -301 -9
-138 -25 -254 -41 -313 -39 -135 -174 -186 -253 -96 -17 19 -31 37 -31 40 0
20 32 75 50 84 32 17 35 6 6 -23 -14 -15 -26 -32 -26 -39 0 -41 68 -83 119
-73 36 7 76 50 91 98 13 44 30 283 26 352 -2 22 -7 87 -11 145 -5 58 -8 109
-7 113 3 12 -30 66 -43 71 -14 5 -41 -47 -100 -199 -58 -146 -85 -200 -142
-287 -85 -128 -192 -198 -308 -199 -60 -1 -102 17 -139 61 -49 59 -27 161 41
194 50 24 117 7 98 -24 -4 -7 -13 -6 -27 1 -42 23 -112 -22 -110 -71 1 -50 12
-70 54 -101 54 -38 114 -39 182 -3 58 31 71 42 121 109 85 112 190 414 171
490 -10 39 -21 22 -36 -55 -35 -174 -117 -369 -191 -454 -75 -84 -178 -111
-238 -60 -40 34 -43 85 -7 109 22 15 27 15 56 0 38 -20 60 -7 60 36 0 84 -170
78 -213 -8 -50 -97 -15 -192 87 -245 32 -16 53 -19 106 -16 129 10 229 78 325
222 65 99 107 189 166 356 l44 125 13 -155 c14 -162 10 -415 -7 -484 -14 -57
-42 -90 -79 -94 -64 -7 -100 46 -47 70 29 13 34 52 9 62 -45 17 -81 1 -107
-51 -21 -40 -21 -56 -1 -99 19 -40 83 -74 140 -74 53 0 123 37 152 79 44 67
52 114 81 466 6 66 13 155 17 198 3 42 10 77 15 77 5 0 9 -11 9 -24 0 -44 50
-218 92 -319 102 -245 255 -391 408 -390 103 1 171 57 192 156 10 46 9 58 -10
99 -37 84 -134 117 -187 63 -44 -43 -25 -79 37 -69 29 5 39 2 57 -17 29 -32
22 -74 -20 -113 -26 -23 -38 -27 -66 -23 -110 18 -208 135 -275 326 -15 45
-66 264 -69 298 0 4 -4 -2 -9 -14 -23 -57 51 -332 120 -448 112 -187 276 -244
350 -122 24 39 25 75 4 105 -18 26 -65 52 -94 52 -12 0 -18 5 -15 10 9 15 62
12 95 -5 39 -20 52 -48 52 -107 0 -90 -69 -158 -160 -158 -49 0 -143 48 -201
103 -95 88 -195 279 -236 447 -2 8 -13 51 -24 95 -11 44 -21 89 -23 100 -3 17
-8 13 -29 -20z"/>
</g>
</svg>
